# Blender 5.0.1
# www.blender.org
o HallLightVolume
v 3.282713 3.112756 3.037411
v 3.415099 3.112756 3.024373
v 2.655777 3.112756 2.099136
v 2.617162 3.112756 2.226435
v 2.604123 3.112756 2.358822
v 2.617162 3.112756 2.491208
v 2.655777 3.112756 2.618507
v 2.718486 3.112756 2.735826
v 2.802877 3.112756 2.838657
v 2.905709 3.112756 2.923048
v 3.023028 3.112756 2.985757
v 3.150326 3.112756 3.024373
v 3.282854 1.713857 2.359532
v 3.282713 1.713857 2.359546
v 3.282990 1.713857 2.359491
v 3.455158 2.642301 2.775141
v 3.455158 3.112756 3.012221
v 3.283116 1.713857 2.359424
v 3.455158 2.352915 2.616904
v 3.283225 1.713857 2.359334
v 3.455158 2.215641 2.531267
v 3.283315 1.713857 2.359224
v 3.455158 2.140366 2.474046
v 3.283382 1.713857 2.359099
v 3.455158 2.097555 2.430251
v 3.283424 1.713857 2.358963
v 3.455158 2.075206 2.393123
v 3.455158 2.068234 2.358821
v 3.283437 1.713857 2.358821
v 3.455158 2.075206 2.324520
v 3.283424 1.713857 2.358680
v 3.455158 2.097555 2.287392
v 3.283382 1.713857 2.358544
v 3.455158 2.140366 2.243597
v 3.283315 1.713857 2.358419
v 3.455158 2.215641 2.186376
v 3.283225 1.713857 2.358309
v 3.283116 1.713857 2.358219
v 3.455158 2.352915 2.100739
v 3.282990 1.713857 2.358152
v 3.455158 2.495437 2.022807
v 3.421895 2.462922 2.022807
v 3.282854 1.713857 2.358111
v 3.349550 2.419374 2.022807
v 3.282713 2.405788 2.022807
v 3.282713 1.713857 2.358097
v 3.215876 2.419374 2.022807
v 3.282572 1.713857 2.358111
v 3.143531 2.462922 2.022807
v 3.282436 1.713857 2.358152
v 3.058195 2.546339 2.022807
v 3.282310 1.713857 2.358219
v 2.946699 2.693015 2.022807
v 3.282201 1.713857 2.358309
v 2.779832 2.960497 2.022807
v 3.282110 1.713857 2.358419
v 2.696576 3.112756 2.022807
v 3.282043 1.713857 2.358544
v 3.282002 1.713857 2.358680
v 3.281988 1.713857 2.358821
v 3.282002 1.713857 2.358963
v 3.282043 1.713857 2.359099
v 3.282110 1.713857 2.359224
v 3.282201 1.713857 2.359334
v 3.282310 1.713857 2.359424
v 3.282436 1.713857 2.359491
v 3.455158 3.112756 2.022807
v 3.282572 1.713857 2.359532
vn 0.0881 -0.4343 0.8964
vn 0.2615 -0.4344 0.8619
vn 0.4246 -0.4344 0.7944
vn 0.5714 -0.4344 0.6963
vn 0.6963 -0.4344 0.5714
vn 0.7944 -0.4344 0.4246
vn 0.8619 -0.4344 0.2615
vn 0.8964 -0.4344 0.0883
vn 0.8964 -0.4344 -0.0883
vn 0.8619 -0.4344 -0.2615
vn 0.7944 -0.4344 -0.4246
vn 0.6963 -0.4344 -0.5714
vn 0.5714 -0.4344 -0.6963
vn 0.4246 -0.4344 -0.7944
vn 0.2614 -0.4344 -0.8619
vn 0.0883 -0.4344 -0.8964
vn -0.0883 -0.4344 -0.8964
vn -0.2615 -0.4344 -0.8619
vn -0.4246 -0.4344 -0.7944
vn -0.5714 -0.4344 -0.6963
vn -0.6963 -0.4343 -0.5714
vn -0.7945 -0.4343 -0.4244
vn -0.8619 -0.4344 -0.2616
vn -0.8964 -0.4344 -0.0883
vn -0.8964 -0.4344 0.0883
vn -0.8619 -0.4344 0.2616
vn -0.7945 -0.4344 0.4243
vn -0.6962 -0.4345 0.5715
vn -0.5714 -0.4343 0.6963
vn -0.4246 -0.4344 0.7944
vn -0.0000 1.0000 -0.0000
vn -0.2616 -0.4344 0.8619
vn -0.0881 -0.4344 0.8964
vn -0.0000 -0.0000 -1.0000
vn 1.0000 -0.0000 -0.0000
vn -0.0000 -1.0000 -0.0000
vn 0.0883 -0.4344 0.8964
vn 0.2615 -0.4343 0.8619
vn 0.4246 -0.4343 0.7944
vn 0.5713 -0.4344 -0.6963
vn 0.2615 -0.4344 -0.8619
vn -0.2614 -0.4344 -0.8619
vn -0.4247 -0.4344 -0.7943
vn -0.5713 -0.4344 -0.6964
vn -0.6963 -0.4344 -0.5714
vn -0.7944 -0.4344 -0.4246
vn -0.8620 -0.4344 -0.2615
vn -0.8964 -0.4344 -0.0879
vn -0.8964 -0.4344 0.0879
vn -0.8620 -0.4344 0.2615
vn -0.7944 -0.4344 0.4246
vn -0.6963 -0.4344 0.5714
vn -0.5714 -0.4344 0.6963
vn -0.2615 -0.4344 0.8619
vn -0.0883 -0.4344 0.8964
vn -0.0002 -1.0000 -0.0000
vn 0.0002 -1.0000 -0.0000
vn 0.0001 -1.0000 -0.0000
vn -0.0001 -1.0000 -0.0000
vt 0.296822 0.485388
vt 0.250000 0.250256
vt 0.250050 0.250251
vt 0.310989 0.397242
vt 0.310990 0.481091
vt 0.250098 0.250237
vt 0.310989 0.341277
vt 0.250142 0.250213
vt 0.310989 0.310989
vt 0.310989 0.341277
vt 0.310989 0.290752
vt 0.250181 0.250181
vt 0.250213 0.250142
vt 0.310989 0.275263
vt 0.250237 0.250098
vt 0.310989 0.262132
vt 0.250251 0.250050
vt 0.310989 0.250000
vt 0.250251 0.249950
vt 0.310990 0.250000
vt 0.250256 0.250000
vt 0.310989 0.237868
vt 0.250237 0.249902
vt 0.310989 0.224737
vt 0.250213 0.249858
vt 0.310989 0.209248
vt 0.310989 0.209248
vt 0.250181 0.249819
vt 0.310989 0.189010
vt 0.310989 0.189011
vt 0.250142 0.249787
vt 0.310989 0.158723
vt 0.310989 0.158723
vt 0.250098 0.249763
vt 0.299225 0.131160
vt 0.273639 0.131160
vt 0.250098 0.249763
vt 0.250050 0.249749
vt 0.250050 0.249749
vt 0.250000 0.131160
vt 0.273639 0.131160
vt 0.249950 0.249749
vt 0.250000 0.249744
vt 0.226361 0.131160
vt 0.249902 0.249763
vt 0.200775 0.131160
vt 0.249858 0.249787
vt 0.170594 0.131160
vt 0.249819 0.249819
vt 0.131160 0.131160
vt 0.249787 0.249858
vt 0.042698 0.131160
vt 0.249787 0.249858
vt 0.249763 0.249902
vt 0.014612 0.203178
vt 0.249749 0.249950
vt 0.249744 0.250000
vt 0.010000 0.250000
vt 0.249749 0.250050
vt 0.014612 0.296822
vt 0.028269 0.341844
vt 0.249749 0.250050
vt 0.249763 0.250098
vt 0.050447 0.383337
vt 0.249787 0.250142
vt 0.080294 0.419706
vt 0.249787 0.250142
vt 0.249819 0.250181
vt 0.116663 0.449553
vt 0.249819 0.250181
vt 0.249858 0.250213
vt 0.158156 0.471731
vt 0.249858 0.250213
vt 0.249902 0.250237
vt 0.528269 0.341844
vt 0.658156 0.471731
vt 0.810989 0.481091
vt 0.203178 0.485388
vt 0.249902 0.250237
vt 0.249950 0.250251
vt 0.250000 0.490000
vt 0.249950 0.250251
vt 0.250000 0.250256
vt 0.510351 0.500000
vt 0.497179 0.448751
vt 0.590889 0.355361
vt 0.441447 0.566266
vt 0.441447 0.543031
vt 0.510351 0.500000
vt 0.338007 0.554757
vt 0.337923 0.554603
vt 0.338126 0.554540
vt 0.250098 0.250237
vt 0.250142 0.250213
vt 0.250181 0.250181
vt 0.250251 0.249950
vt 0.250237 0.249902
vt 0.250213 0.249858
vt 0.310989 0.131160
vt 0.299225 0.131160
vt 0.226361 0.131160
vt 0.249950 0.249749
vt 0.249902 0.249763
vt 0.072144 0.131160
vt 0.028269 0.158156
vt 0.072144 0.131160
vt 0.249749 0.249950
vt 0.810989 0.131160
vt 0.542698 0.131160
vt 0.528269 0.158156
vt 0.514612 0.203178
vt 0.510000 0.250000
vt 0.514612 0.296822
vt 0.550447 0.383337
vt 0.580294 0.419706
vt 0.616663 0.449553
vt 0.703178 0.485388
vt 0.750000 0.490000
vt 0.796822 0.485388
vt 0.617256 0.337529
vt 0.617256 0.500000
vt 0.504720 0.492876
vt 0.497179 0.477381
vt 0.494826 0.463066
vt 0.504720 0.433257
vt 0.519166 0.414980
vt 0.544567 0.391100
vt 0.617256 0.500000
vt 0.617256 0.660916
vt 0.535784 0.622358
vt 0.485670 0.596622
vt 0.461897 0.582695
vt 0.448861 0.573388
vt 0.437577 0.560227
vt 0.436370 0.554648
vt 0.437577 0.549070
vt 0.448861 0.535909
vt 0.461897 0.526603
vt 0.485670 0.512675
vt 0.338152 0.554551
vt 0.338176 0.554565
vt 0.338195 0.554583
vt 0.338210 0.554603
vt 0.338218 0.554626
vt 0.338221 0.554649
vt 0.338218 0.554672
vt 0.338210 0.554694
vt 0.338195 0.554714
vt 0.338176 0.554732
vt 0.338152 0.554747
vt 0.338126 0.554757
vt 0.338096 0.554764
vt 0.338066 0.554766
vt 0.338036 0.554764
vt 0.337980 0.554747
vt 0.337956 0.554732
vt 0.337937 0.554714
vt 0.337923 0.554694
vt 0.337914 0.554672
vt 0.337911 0.554649
vt 0.337914 0.554626
vt 0.337937 0.554583
vt 0.337956 0.554565
vt 0.337980 0.554551
vt 0.338007 0.554540
vt 0.338036 0.554533
vt 0.338066 0.554531
vt 0.338096 0.554533
s 0
f 2/1/1 14/2/1 13/3/1
f 13/3/2 16/4/2 17/5/2
f 15/6/3 19/7/3 16/4/3
f 18/8/4 21/9/4 19/10/4
f 23/11/5 20/12/5 22/13/5
f 25/14/6 22/13/6 24/15/6
f 27/16/7 24/15/7 26/17/7
f 26/17/8 28/18/8 27/16/8
f 31/19/9 28/20/9 29/21/9
f 30/22/10 33/23/10 32/24/10
f 32/24/11 35/25/11 34/26/11
f 34/27/12 37/28/12 36/29/12
f 36/30/13 38/31/13 39/32/13
f 39/33/14 40/34/14 42/35/14
f 44/36/15 40/37/15 43/38/15
f 43/39/16 45/40/16 44/41/16
f 48/42/17 45/40/17 46/43/17
f 47/44/18 50/45/18 49/46/18
f 49/46/19 52/47/19 51/48/19
f 51/48/20 54/49/20 53/50/20
f 56/51/21 53/50/21 54/49/21
f 57/52/22 56/53/22 58/54/22
f 4/55/23 58/54/23 59/56/23
f 4/55/24 60/57/24 5/58/24
f 5/58/25 61/59/25 6/60/25
f 7/61/26 61/62/26 62/63/26
f 8/64/27 62/63/27 63/65/27
f 9/66/28 63/67/28 64/68/28
f 10/69/29 64/70/29 65/71/29
f 11/72/30 65/73/30 66/74/30
f 7/75/31 11/76/31 17/77/31
f 12/78/32 66/79/32 68/80/32
f 1/81/33 68/82/33 14/83/33
f 41/84/34 47/85/34 55/86/34
f 25/87/35 32/88/35 41/89/35
f 66/90/36 58/91/36 40/92/36
f 2/1/37 1/81/37 14/2/37
f 17/5/2 2/1/2 13/3/2
f 13/3/38 15/93/38 16/4/38
f 15/6/39 18/94/39 19/7/39
f 18/8/4 20/95/4 21/9/4
f 23/11/5 21/9/5 20/12/5
f 25/14/6 23/11/6 22/13/6
f 27/16/7 25/14/7 24/15/7
f 26/17/8 29/21/8 28/18/8
f 31/19/9 30/22/9 28/20/9
f 30/22/10 31/96/10 33/23/10
f 32/24/11 33/97/11 35/25/11
f 34/27/12 35/98/12 37/28/12
f 36/30/40 37/28/40 38/31/40
f 42/35/14 41/99/14 39/33/14
f 39/33/14 38/31/14 40/34/14
f 44/36/41 42/100/41 40/37/41
f 43/39/16 46/43/16 45/40/16
f 48/42/17 47/101/17 45/40/17
f 47/44/42 48/102/42 50/45/42
f 49/46/43 50/103/43 52/47/43
f 51/48/44 52/47/44 54/49/44
f 56/51/45 55/104/45 53/50/45
f 58/54/46 3/105/46 57/52/46
f 57/52/46 55/106/46 56/53/46
f 4/55/47 3/105/47 58/54/47
f 4/55/48 59/107/48 60/57/48
f 5/58/49 60/57/49 61/59/49
f 7/61/50 6/60/50 61/62/50
f 8/64/51 7/61/51 62/63/51
f 9/66/52 8/64/52 63/67/52
f 10/69/53 9/66/53 64/70/53
f 11/72/30 10/69/30 65/73/30
f 67/108/31 57/109/31 3/110/31
f 3/110/31 4/111/31 5/112/31
f 5/112/31 6/113/31 7/75/31
f 7/75/31 8/114/31 9/115/31
f 9/115/31 10/116/31 11/76/31
f 11/76/31 12/117/31 1/118/31
f 1/118/31 2/119/31 17/77/31
f 17/77/31 67/108/31 3/110/31
f 3/110/31 5/112/31 7/75/31
f 7/75/31 9/115/31 11/76/31
f 11/76/31 1/118/31 17/77/31
f 17/77/31 3/110/31 7/75/31
f 12/78/54 11/72/54 66/79/54
f 1/81/55 12/78/55 68/82/55
f 57/120/34 67/121/34 41/84/34
f 41/84/34 42/122/34 44/123/34
f 44/123/34 45/124/34 47/85/34
f 47/85/34 49/125/34 51/126/34
f 51/126/34 53/127/34 55/86/34
f 55/86/34 57/120/34 41/84/34
f 41/84/34 44/123/34 47/85/34
f 47/85/34 51/126/34 55/86/34
f 67/128/35 17/129/35 16/130/35
f 16/130/35 19/131/35 21/132/35
f 21/132/35 23/133/35 25/87/35
f 25/87/35 27/134/35 28/135/35
f 28/135/35 30/136/35 32/88/35
f 32/88/35 34/137/35 36/138/35
f 36/138/35 39/139/35 41/89/35
f 41/89/35 67/128/35 16/130/35
f 16/130/35 21/132/35 25/87/35
f 25/87/35 28/135/35 32/88/35
f 32/88/35 36/138/35 41/89/35
f 41/89/35 16/130/35 25/87/35
f 40/92/36 38/140/36 37/141/36
f 37/141/36 35/142/36 33/143/36
f 33/143/56 31/144/56 29/145/56
f 29/145/56 26/146/56 24/147/56
f 24/147/36 22/148/36 20/149/36
f 20/149/56 18/150/56 15/151/56
f 15/151/36 13/152/36 14/153/36
f 14/153/36 68/154/36 66/90/36
f 66/90/57 65/155/57 64/156/57
f 64/156/36 63/157/36 62/158/36
f 62/158/57 61/159/57 60/160/57
f 60/160/57 59/161/57 58/91/57
f 58/91/36 56/162/36 54/163/36
f 54/163/58 52/164/58 50/165/58
f 50/165/58 48/166/58 46/167/58
f 46/167/59 43/168/59 40/92/59
f 40/92/36 37/141/36 33/143/36
f 33/143/36 29/145/36 24/147/36
f 24/147/58 20/149/58 15/151/58
f 15/151/36 14/153/36 66/90/36
f 66/90/59 64/156/59 62/158/59
f 62/158/36 60/160/36 58/91/36
f 58/91/36 54/163/36 50/165/36
f 50/165/36 46/167/36 40/92/36
f 40/92/36 33/143/36 24/147/36
f 24/147/36 15/151/36 66/90/36
f 66/90/36 62/158/36 58/91/36
f 58/91/36 50/165/36 40/92/36
f 40/92/36 24/147/36 66/90/36
